<svg xmlns="http://www.w3.org/2000/svg" width="563.394" height="100.82" viewBox="0 0 149.06456 26.675268"><path d="M14.353 7.747a7.39 7.39 0 0 1 3.933 3.806l1.06-.094a8.431 8.431 0 0 0-16.073 1.425l1.06-.094a7.419 7.419 0 0 1 10.02-5.043zm4.365 8.674a7.421 7.421 0 0 1-7.6 5.591l-.407.985c3.6.35 7.158-1.66 8.608-5.178.202-.49.354-.99.459-1.491zm-15.01 1.33a8.425 8.425 0 0 0 2.481 3.381l.406-.984a7.416 7.416 0 0 1-1.827-2.49z" fill="#939d37" fill-rule="evenodd"/><path d="M15.39 5.231c.208.086.41.177.61.275l.914-1.084a11.476 11.476 0 0 0-9.477-.588l.775 1.19a10.098 10.098 0 0 1 7.178.207zm4.348 3.425a10.136 10.136 0 0 1-.799 12.868l.774 1.191a11.478 11.478 0 0 0 2.465-3.717A11.519 11.519 0 0 0 20.653 7.57zm-4.9 15.53a10.095 10.095 0 0 1-7.178-.206C2.484 21.846.017 15.917 2.151 10.74a10.126 10.126 0 0 1 1.96-3.054l-.774-1.19a11.497 11.497 0 0 0-2.464 3.718c-2.426 5.882.378 12.62 6.26 15.044a11.48 11.48 0 0 0 8.48.119z" fill="#babf64" fill-rule="evenodd"/><text x="25.877" y="19.716" font-size="1.292" stroke-width=".108" transform="translate(-.307 -.18)"><tspan font-size="22.821" font-family="Archangelsk" fill="#005a82">EXE</tspan> <tspan font-size="22.821" font-family="Archangelsk" fill="#d15a1a">LL</tspan> <tspan font-size="22.821" font-family="Archangelsk" fill="#005a82">ENT</tspan></text><path d="M25.574 22.172h.438v2.891l1.943-2.89h.486v3.65h-.439V22.94l-1.945 2.884h-.483zm6.848 3.651v-3.65h.484v1.499h1.898v-1.5h.483v3.651h-.483v-1.72h-1.898v1.72zm7.774 0v-3.22h-1.203v-.43h2.893v.43h-1.208v3.22zm5.371 0v-3.65h2.64v.43H46.05v1.118h2.02v.428h-2.02v1.243h2.242v.431zm6.567 0v-3.65h1.377c.242 0 .428.011.555.034.18.03.33.087.452.17.12.084.218.202.292.353.074.151.11.317.11.498 0 .31-.098.574-.295.789-.198.214-.555.322-1.071.322h-.937v1.484zm.483-1.915h.944c.312 0 .534-.058.665-.174.131-.117.196-.28.196-.49a.66.66 0 0 0-.115-.393.54.54 0 0 0-.305-.216 2.082 2.082 0 0 0-.45-.032h-.935zm6.108 1.915v-3.65h.484v1.499h1.897v-1.5h.484v3.651h-.484v-1.72H59.21v1.72zm6.855 0v-3.65h2.64v.43h-2.157v1.118h2.02v.428h-2.02v1.243h2.241v.431zm7.495 0v-3.22h-1.202v-.43h2.893v.43h-1.208v3.22zm6.784-3.65h2.872v3.65h-.487v-3.22h-1.902v3.22h-.483zm6.836 3.65v-3.65h1.378c.242 0 .427.011.555.034.179.03.33.087.451.17.12.084.218.202.292.353.074.151.11.317.11.498 0 .31-.098.574-.295.789-.198.214-.555.322-1.071.322h-.937v1.484zm.483-1.915h.945c.312 0 .534-.058.664-.174.131-.117.197-.28.197-.49a.66.66 0 0 0-.116-.393.54.54 0 0 0-.305-.216 2.082 2.082 0 0 0-.45-.032h-.935zm5.835.137c0-.606.163-1.08.488-1.423.326-.343.745-.515 1.26-.515.337 0 .642.081.912.242.27.162.477.386.619.674.142.287.212.615.212.98 0 .37-.074.702-.223.993-.15.293-.362.514-.635.664-.275.15-.57.225-.887.225-.344 0-.651-.082-.921-.249a1.596 1.596 0 0 1-.616-.68 2.045 2.045 0 0 1-.209-.911zm.498.008c0 .44.118.786.355 1.04.237.253.534.38.89.38.365 0 .664-.128.898-.384.235-.256.353-.619.353-1.089 0-.297-.051-.556-.151-.778a1.162 1.162 0 0 0-1.092-.698c-.342 0-.636.117-.883.353-.247.234-.37.627-.37 1.176zm6.771 1.77v-3.65h1.37c.28 0 .503.037.671.11a.86.86 0 0 1 .396.342.9.9 0 0 1 .144.482.826.826 0 0 1-.128.44.908.908 0 0 1-.383.334c.221.065.39.175.51.33a.898.898 0 0 1 .178.554c0 .171-.037.33-.11.477a.925.925 0 0 1-.267.34c-.106.08-.24.14-.4.18-.16.041-.356.062-.588.062zm.484-2.116h.79c.213 0 .367-.015.46-.043a.51.51 0 0 0 .277-.181.528.528 0 0 0 .094-.32.587.587 0 0 0-.087-.319.443.443 0 0 0-.249-.19c-.108-.034-.293-.05-.556-.05h-.73zm0 1.685h.909c.156 0 .266-.006.328-.017a.783.783 0 0 0 .28-.1.524.524 0 0 0 .184-.202.642.642 0 0 0 .072-.308.61.61 0 0 0-.105-.355.554.554 0 0 0-.29-.212 1.827 1.827 0 0 0-.534-.06h-.844zm5.543.432l1.403-3.651h.52l1.494 3.65h-.55l-.426-1.105h-1.527l-.4 1.106zm1.053-1.5h1.239l-.382-1.01a9.999 9.999 0 0 1-.258-.758 4.643 4.643 0 0 1-.198.698zm5.933-2.151h.438v2.89l1.942-2.89h.486v3.65h-.438V22.94l-1.945 2.885h-.483zm1.816-.87h.306c-.025.208-.1.368-.228.478-.127.112-.296.168-.507.168-.212 0-.382-.055-.509-.166-.128-.11-.203-.27-.228-.48h.306c.023.114.07.198.139.253a.426.426 0 0 0 .277.084c.135 0 .236-.027.305-.081a.41.41 0 0 0 .139-.255zm5.35.87h2.22v3.22h.33v1.282h-.432v-.851h-2.413v.851h-.43v-1.283h.283c.294-.442.441-1.338.441-2.686zm1.737.43h-1.273v.188c0 .31-.027.734-.083 1.273-.055.539-.165.982-.327 1.328h1.683zm4.57 3.22v-3.65h2.64v.43h-2.157v1.119h2.02v.428h-2.02v1.242h2.241v.432zm6.567 0v-3.65h1.377c.242 0 .427.012.555.034.18.03.33.087.451.171a.906.906 0 0 1 .293.352c.074.151.11.317.11.498 0 .31-.098.574-.296.79-.198.213-.555.321-1.07.321h-.937v1.485zm.483-1.915h.944c.312 0 .534-.057.665-.174.13-.116.196-.28.196-.49a.66.66 0 0 0-.116-.393.54.54 0 0 0-.305-.215 2.082 2.082 0 0 0-.45-.033h-.934z" fill="#3b3b3b" fill-rule="evenodd"/><path d="M11.525 9.216a5.39 5.39 0 0 1 5.39 5.39 5.39 5.39 0 1 1-5.39-5.39z" fill="#e06a18" fill-rule="evenodd"/><path d="M146.367 0a2.698 2.698 0 1 1 0 5.395 2.698 2.698 0 0 1 0-5.395zm0 .236a2.461 2.461 0 1 1 0 4.923 2.461 2.461 0 0 1 0-4.923z" fill="#3b3b3b" fill-rule="evenodd"/><path d="M145.092 4.152V1.125h1.342c.27 0 .475.028.615.082.14.054.253.15.337.287.084.138.126.29.126.457a.757.757 0 0 1-.209.543c-.139.147-.354.24-.644.28.106.052.187.102.242.152.117.107.227.241.332.402l.527.824h-.504l-.4-.63a5.55 5.55 0 0 0-.29-.416.887.887 0 0 0-.203-.203.61.61 0 0 0-.183-.08 1.28 1.28 0 0 0-.223-.015h-.464v1.344zm.4-1.69h.862c.182 0 .326-.02.43-.058a.457.457 0 0 0 .234-.182.49.49 0 0 0 .08-.27.45.45 0 0 0-.155-.354c-.104-.092-.268-.138-.493-.138h-.957z" fill="#3b3b3b" fill-rule="evenodd"/></svg>